<mxfile host="app.diagrams.net" modified="2021-11-29T07:39:37.156Z" agent="5.0 (Windows NT 10.0; Win64; x64) AppleWebKit/537.36 (KHTML, like Gecko) Chrome/96.0.4664.45 Safari/537.36" etag="_m8qEWSCcRdF8g2rRAWj" version="15.8.6" type="github" pages="2">
  <diagram id="ZAGVgSnDbnfvpQP2Bh8q" name="Page-1">
    <mxGraphModel dx="2657" dy="1038" grid="1" gridSize="10" guides="1" tooltips="1" connect="1" arrows="1" fold="1" page="1" pageScale="1" pageWidth="827" pageHeight="1169" background="#F1FAEE" math="0" shadow="0">
      <root>
        <mxCell id="0" />
        <mxCell id="1" parent="0" />
        <mxCell id="qdA1u5Kqc7f9OA1IQgTR-29" value="" style="rounded=0;whiteSpace=wrap;html=1;sketch=1;fontColor=#1D3557;strokeColor=#457B9D;fillColor=none;" parent="1" vertex="1">
          <mxGeometry x="430" y="210" width="820" height="440" as="geometry" />
        </mxCell>
        <mxCell id="qdA1u5Kqc7f9OA1IQgTR-9" style="edgeStyle=orthogonalEdgeStyle;curved=1;orthogonalLoop=1;jettySize=auto;html=1;entryX=1;entryY=0.5;entryDx=0;entryDy=0;entryPerimeter=0;fontColor=#1D3557;strokeColor=#457B9D;fillColor=#A8DADC;sketch=1;" parent="1" source="qdA1u5Kqc7f9OA1IQgTR-1" target="qdA1u5Kqc7f9OA1IQgTR-6" edge="1">
          <mxGeometry relative="1" as="geometry" />
        </mxCell>
        <mxCell id="qdA1u5Kqc7f9OA1IQgTR-10" value="缓存异常统计数据" style="edgeLabel;html=1;align=center;verticalAlign=middle;resizable=0;points=[];fontColor=#1D3557;rounded=1;sketch=1;" parent="qdA1u5Kqc7f9OA1IQgTR-9" vertex="1" connectable="0">
          <mxGeometry x="0.1672" y="-2" relative="1" as="geometry">
            <mxPoint x="18" y="2" as="offset" />
          </mxGeometry>
        </mxCell>
        <mxCell id="qdA1u5Kqc7f9OA1IQgTR-11" style="edgeStyle=orthogonalEdgeStyle;curved=1;orthogonalLoop=1;jettySize=auto;html=1;fontColor=#1D3557;strokeColor=#457B9D;fillColor=#A8DADC;sketch=1;entryX=0.5;entryY=0;entryDx=0;entryDy=0;entryPerimeter=0;" parent="1" source="qdA1u5Kqc7f9OA1IQgTR-1" target="qdA1u5Kqc7f9OA1IQgTR-5" edge="1">
          <mxGeometry relative="1" as="geometry">
            <mxPoint x="825" y="545" as="targetPoint" />
          </mxGeometry>
        </mxCell>
        <mxCell id="qdA1u5Kqc7f9OA1IQgTR-12" value="存储主机异常/维修数据" style="edgeLabel;html=1;align=center;verticalAlign=middle;resizable=0;points=[];fontColor=#1D3557;rounded=1;sketch=1;" parent="qdA1u5Kqc7f9OA1IQgTR-11" vertex="1" connectable="0">
          <mxGeometry x="-0.2254" y="-1" relative="1" as="geometry">
            <mxPoint as="offset" />
          </mxGeometry>
        </mxCell>
        <mxCell id="qdA1u5Kqc7f9OA1IQgTR-14" value="" style="edgeStyle=orthogonalEdgeStyle;curved=1;rounded=1;orthogonalLoop=1;jettySize=auto;html=1;fontColor=#1D3557;strokeColor=#457B9D;fillColor=#A8DADC;sketch=1;" parent="1" source="qdA1u5Kqc7f9OA1IQgTR-1" target="qdA1u5Kqc7f9OA1IQgTR-13" edge="1">
          <mxGeometry relative="1" as="geometry" />
        </mxCell>
        <mxCell id="qdA1u5Kqc7f9OA1IQgTR-15" value="（启用/禁用）" style="edgeLabel;html=1;align=center;verticalAlign=middle;resizable=0;points=[];fontColor=#1D3557;sketch=1;" parent="qdA1u5Kqc7f9OA1IQgTR-14" vertex="1" connectable="0">
          <mxGeometry x="0.1371" y="3" relative="1" as="geometry">
            <mxPoint as="offset" />
          </mxGeometry>
        </mxCell>
        <mxCell id="qdA1u5Kqc7f9OA1IQgTR-1" value="&lt;b&gt;host-abnormal-provider&lt;/b&gt;" style="whiteSpace=wrap;html=1;fontColor=#1D3557;strokeColor=#457B9D;fillColor=none;rounded=1;sketch=1;" parent="1" vertex="1">
          <mxGeometry x="680" y="355" width="270" height="110" as="geometry" />
        </mxCell>
        <mxCell id="qdA1u5Kqc7f9OA1IQgTR-7" style="edgeStyle=orthogonalEdgeStyle;curved=1;orthogonalLoop=1;jettySize=auto;html=1;entryX=0.198;entryY=0.008;entryDx=0;entryDy=0;entryPerimeter=0;fontColor=#1D3557;strokeColor=#457B9D;fillColor=#A8DADC;sketch=1;" parent="1" source="qdA1u5Kqc7f9OA1IQgTR-3" target="qdA1u5Kqc7f9OA1IQgTR-1" edge="1">
          <mxGeometry relative="1" as="geometry" />
        </mxCell>
        <mxCell id="qdA1u5Kqc7f9OA1IQgTR-8" value="监听ComputerApplyRecord" style="edgeLabel;html=1;align=center;verticalAlign=middle;resizable=0;points=[];fontColor=#1D3557;rounded=1;sketch=1;" parent="qdA1u5Kqc7f9OA1IQgTR-7" vertex="1" connectable="0">
          <mxGeometry x="-0.2097" y="-1" relative="1" as="geometry">
            <mxPoint x="19" y="19" as="offset" />
          </mxGeometry>
        </mxCell>
        <mxCell id="qdA1u5Kqc7f9OA1IQgTR-3" value="Kafka" style="ellipse;whiteSpace=wrap;html=1;fontColor=#1D3557;strokeColor=#457B9D;fillColor=#A8DADC;rounded=1;sketch=1;" parent="1" vertex="1">
          <mxGeometry x="490" y="260" width="120" height="80" as="geometry" />
        </mxCell>
        <mxCell id="qdA1u5Kqc7f9OA1IQgTR-5" value="MySQL" style="shape=cylinder3;whiteSpace=wrap;html=1;boundedLbl=1;backgroundOutline=1;size=15;fontColor=#1D3557;strokeColor=#457B9D;fillColor=#A8DADC;rounded=1;sketch=1;" parent="1" vertex="1">
          <mxGeometry x="834" y="540" width="60" height="80" as="geometry" />
        </mxCell>
        <mxCell id="qdA1u5Kqc7f9OA1IQgTR-6" value="Redis" style="shape=cylinder3;whiteSpace=wrap;html=1;boundedLbl=1;backgroundOutline=1;size=15;fontColor=#1D3557;strokeColor=#457B9D;fillColor=#A8DADC;rounded=1;sketch=1;" parent="1" vertex="1">
          <mxGeometry x="580" y="540" width="60" height="80" as="geometry" />
        </mxCell>
        <mxCell id="qdA1u5Kqc7f9OA1IQgTR-13" value="cloud-pc-provider" style="whiteSpace=wrap;html=1;rounded=1;fontColor=#1D3557;strokeColor=#457B9D;fillColor=none;sketch=1;fontStyle=1" parent="1" vertex="1">
          <mxGeometry x="1060" y="440" width="120" height="60" as="geometry" />
        </mxCell>
        <mxCell id="qdA1u5Kqc7f9OA1IQgTR-23" value="监控分析" style="labelPosition=center;verticalLabelPosition=middle;align=center;html=1;shape=mxgraph.basic.button;dx=10;rounded=1;fontColor=#1D3557;strokeColor=#457B9D;fillColor=none;sketch=1;" parent="1" vertex="1">
          <mxGeometry x="740" y="355" width="70" height="40" as="geometry" />
        </mxCell>
        <mxCell id="qdA1u5Kqc7f9OA1IQgTR-24" value="维修处理" style="labelPosition=center;verticalLabelPosition=middle;align=center;html=1;shape=mxgraph.basic.button;dx=10;rounded=1;fontColor=#1D3557;strokeColor=#457B9D;fillColor=none;sketch=1;" parent="1" vertex="1">
          <mxGeometry x="740" y="425" width="70" height="40" as="geometry" />
        </mxCell>
        <mxCell id="qdA1u5Kqc7f9OA1IQgTR-25" value="异常告警" style="labelPosition=center;verticalLabelPosition=middle;align=center;html=1;shape=mxgraph.basic.button;dx=10;rounded=1;fontColor=#1D3557;strokeColor=#457B9D;fillColor=none;sketch=1;" parent="1" vertex="1">
          <mxGeometry x="834" y="356" width="70" height="40" as="geometry" />
        </mxCell>
        <mxCell id="qdA1u5Kqc7f9OA1IQgTR-26" value="历史追溯" style="labelPosition=center;verticalLabelPosition=middle;align=center;html=1;shape=mxgraph.basic.button;dx=10;rounded=1;fontColor=#1D3557;strokeColor=#457B9D;fillColor=none;sketch=1;" parent="1" vertex="1">
          <mxGeometry x="834" y="425" width="70" height="40" as="geometry" />
        </mxCell>
        <mxCell id="qdA1u5Kqc7f9OA1IQgTR-37" style="edgeStyle=orthogonalEdgeStyle;curved=1;rounded=1;sketch=1;orthogonalLoop=1;jettySize=auto;html=1;entryX=0;entryY=0.5;entryDx=0;entryDy=0;fontColor=#1D3557;strokeColor=#457B9D;fillColor=#A8DADC;" parent="1" source="qdA1u5Kqc7f9OA1IQgTR-30" target="qdA1u5Kqc7f9OA1IQgTR-29" edge="1">
          <mxGeometry relative="1" as="geometry" />
        </mxCell>
        <mxCell id="qdA1u5Kqc7f9OA1IQgTR-30" value="顺网云" style="rounded=1;whiteSpace=wrap;html=1;sketch=1;fontColor=#1D3557;strokeColor=#457B9D;fillColor=none;" parent="1" vertex="1">
          <mxGeometry x="130" y="480" width="120" height="60" as="geometry" />
        </mxCell>
        <mxCell id="qdA1u5Kqc7f9OA1IQgTR-36" style="edgeStyle=orthogonalEdgeStyle;curved=1;rounded=1;sketch=1;orthogonalLoop=1;jettySize=auto;html=1;fontColor=#1D3557;strokeColor=#457B9D;fillColor=#A8DADC;" parent="1" source="qdA1u5Kqc7f9OA1IQgTR-31" target="qdA1u5Kqc7f9OA1IQgTR-29" edge="1">
          <mxGeometry relative="1" as="geometry" />
        </mxCell>
        <mxCell id="qdA1u5Kqc7f9OA1IQgTR-31" value="云电脑" style="rounded=1;whiteSpace=wrap;html=1;sketch=1;fontColor=#1D3557;strokeColor=#457B9D;fillColor=none;" parent="1" vertex="1">
          <mxGeometry x="130" y="296" width="120" height="60" as="geometry" />
        </mxCell>
        <mxCell id="qdA1u5Kqc7f9OA1IQgTR-34" style="edgeStyle=orthogonalEdgeStyle;curved=1;rounded=1;sketch=1;orthogonalLoop=1;jettySize=auto;html=1;fontColor=#1D3557;strokeColor=#457B9D;fillColor=#A8DADC;" parent="1" target="qdA1u5Kqc7f9OA1IQgTR-31" edge="1">
          <mxGeometry relative="1" as="geometry">
            <mxPoint x="-130" y="425" as="sourcePoint" />
            <Array as="points">
              <mxPoint x="20" y="425" />
              <mxPoint x="20" y="326" />
            </Array>
          </mxGeometry>
        </mxCell>
        <mxCell id="qdA1u5Kqc7f9OA1IQgTR-35" style="edgeStyle=orthogonalEdgeStyle;curved=1;rounded=1;sketch=1;orthogonalLoop=1;jettySize=auto;html=1;fontColor=#1D3557;strokeColor=#457B9D;fillColor=#A8DADC;" parent="1" source="qdA1u5Kqc7f9OA1IQgTR-32" target="qdA1u5Kqc7f9OA1IQgTR-30" edge="1">
          <mxGeometry relative="1" as="geometry">
            <Array as="points">
              <mxPoint x="30" y="428" />
              <mxPoint x="30" y="510" />
            </Array>
          </mxGeometry>
        </mxCell>
        <mxCell id="qdA1u5Kqc7f9OA1IQgTR-32" value="Actor" style="shape=umlActor;verticalLabelPosition=bottom;verticalAlign=top;html=1;outlineConnect=0;rounded=1;sketch=1;fontColor=#1D3557;strokeColor=#457B9D;fillColor=none;" parent="1" vertex="1">
          <mxGeometry x="-160" y="395" width="30" height="65" as="geometry" />
        </mxCell>
        <mxCell id="qdA1u5Kqc7f9OA1IQgTR-56" value="监控分析" style="swimlane;fontStyle=0;childLayout=stackLayout;horizontal=1;startSize=26;fillColor=none;horizontalStack=0;resizeParent=1;resizeParentMax=0;resizeLast=0;collapsible=1;marginBottom=0;rounded=1;sketch=1;fontColor=#1D3557;strokeColor=#457B9D;" parent="1" vertex="1">
          <mxGeometry x="380" y="720" width="200" height="104" as="geometry" />
        </mxCell>
        <mxCell id="qdA1u5Kqc7f9OA1IQgTR-57" value="自定义监控规则（阿波罗配置）" style="text;strokeColor=none;fillColor=none;align=left;verticalAlign=top;spacingLeft=4;spacingRight=4;overflow=hidden;rotatable=0;points=[[0,0.5],[1,0.5]];portConstraint=eastwest;rounded=1;sketch=1;fontColor=#1D3557;" parent="qdA1u5Kqc7f9OA1IQgTR-56" vertex="1">
          <mxGeometry y="26" width="200" height="26" as="geometry" />
        </mxCell>
        <mxCell id="qdA1u5Kqc7f9OA1IQgTR-58" value="监控主机核心状态（CPU,GPU）" style="text;strokeColor=none;fillColor=none;align=left;verticalAlign=top;spacingLeft=4;spacingRight=4;overflow=hidden;rotatable=0;points=[[0,0.5],[1,0.5]];portConstraint=eastwest;rounded=1;sketch=1;fontColor=#1D3557;" parent="qdA1u5Kqc7f9OA1IQgTR-56" vertex="1">
          <mxGeometry y="52" width="200" height="26" as="geometry" />
        </mxCell>
        <mxCell id="qdA1u5Kqc7f9OA1IQgTR-59" value="异常等级划分（疑似，明确）" style="text;strokeColor=none;fillColor=none;align=left;verticalAlign=top;spacingLeft=4;spacingRight=4;overflow=hidden;rotatable=0;points=[[0,0.5],[1,0.5]];portConstraint=eastwest;rounded=1;sketch=1;fontColor=#1D3557;" parent="qdA1u5Kqc7f9OA1IQgTR-56" vertex="1">
          <mxGeometry y="78" width="200" height="26" as="geometry" />
        </mxCell>
        <mxCell id="qdA1u5Kqc7f9OA1IQgTR-60" value="异常告警" style="swimlane;fontStyle=0;childLayout=stackLayout;horizontal=1;startSize=26;fillColor=none;horizontalStack=0;resizeParent=1;resizeParentMax=0;resizeLast=0;collapsible=1;marginBottom=0;rounded=1;sketch=1;fontColor=#1D3557;strokeColor=#457B9D;" parent="1" vertex="1">
          <mxGeometry x="640" y="720" width="200" height="78" as="geometry" />
        </mxCell>
        <mxCell id="qdA1u5Kqc7f9OA1IQgTR-61" value="动态智能告警（根据禁用率判断）" style="text;strokeColor=none;fillColor=none;align=left;verticalAlign=top;spacingLeft=4;spacingRight=4;overflow=hidden;rotatable=0;points=[[0,0.5],[1,0.5]];portConstraint=eastwest;rounded=1;sketch=1;fontColor=#1D3557;" parent="qdA1u5Kqc7f9OA1IQgTR-60" vertex="1">
          <mxGeometry y="26" width="200" height="26" as="geometry" />
        </mxCell>
        <mxCell id="qdA1u5Kqc7f9OA1IQgTR-62" value="多种通道推送（飞书，维修）" style="text;strokeColor=none;fillColor=none;align=left;verticalAlign=top;spacingLeft=4;spacingRight=4;overflow=hidden;rotatable=0;points=[[0,0.5],[1,0.5]];portConstraint=eastwest;rounded=1;sketch=1;fontColor=#1D3557;" parent="qdA1u5Kqc7f9OA1IQgTR-60" vertex="1">
          <mxGeometry y="52" width="200" height="26" as="geometry" />
        </mxCell>
        <mxCell id="qdA1u5Kqc7f9OA1IQgTR-64" value="维修处理" style="swimlane;fontStyle=0;childLayout=stackLayout;horizontal=1;startSize=26;fillColor=none;horizontalStack=0;resizeParent=1;resizeParentMax=0;resizeLast=0;collapsible=1;marginBottom=0;rounded=1;sketch=1;fontColor=#1D3557;strokeColor=#457B9D;" parent="1" vertex="1">
          <mxGeometry x="880" y="713" width="200" height="78" as="geometry">
            <mxRectangle x="600" y="756" width="80" height="26" as="alternateBounds" />
          </mxGeometry>
        </mxCell>
        <mxCell id="qdA1u5Kqc7f9OA1IQgTR-65" value="维修异常主机（过程记录）" style="text;strokeColor=none;fillColor=none;align=left;verticalAlign=top;spacingLeft=4;spacingRight=4;overflow=hidden;rotatable=0;points=[[0,0.5],[1,0.5]];portConstraint=eastwest;rounded=1;sketch=1;fontColor=#1D3557;" parent="qdA1u5Kqc7f9OA1IQgTR-64" vertex="1">
          <mxGeometry y="26" width="200" height="26" as="geometry" />
        </mxCell>
        <mxCell id="qdA1u5Kqc7f9OA1IQgTR-66" value="验证主机恢复（一键验证）" style="text;strokeColor=none;fillColor=none;align=left;verticalAlign=top;spacingLeft=4;spacingRight=4;overflow=hidden;rotatable=0;points=[[0,0.5],[1,0.5]];portConstraint=eastwest;rounded=1;sketch=1;fontColor=#1D3557;" parent="qdA1u5Kqc7f9OA1IQgTR-64" vertex="1">
          <mxGeometry y="52" width="200" height="26" as="geometry" />
        </mxCell>
        <mxCell id="qdA1u5Kqc7f9OA1IQgTR-71" value="历史追溯" style="swimlane;fontStyle=0;childLayout=stackLayout;horizontal=1;startSize=26;fillColor=none;horizontalStack=0;resizeParent=1;resizeParentMax=0;resizeLast=0;collapsible=1;marginBottom=0;rounded=1;sketch=1;fontColor=#1D3557;strokeColor=#457B9D;" parent="1" vertex="1">
          <mxGeometry x="1131" y="700" width="110" height="104" as="geometry" />
        </mxCell>
        <mxCell id="qdA1u5Kqc7f9OA1IQgTR-72" value="异常详情记录" style="text;strokeColor=none;fillColor=none;align=left;verticalAlign=top;spacingLeft=4;spacingRight=4;overflow=hidden;rotatable=0;points=[[0,0.5],[1,0.5]];portConstraint=eastwest;rounded=1;sketch=1;fontColor=#1D3557;" parent="qdA1u5Kqc7f9OA1IQgTR-71" vertex="1">
          <mxGeometry y="26" width="110" height="26" as="geometry" />
        </mxCell>
        <mxCell id="qdA1u5Kqc7f9OA1IQgTR-73" value="维修过程记录" style="text;strokeColor=none;fillColor=none;align=left;verticalAlign=top;spacingLeft=4;spacingRight=4;overflow=hidden;rotatable=0;points=[[0,0.5],[1,0.5]];portConstraint=eastwest;rounded=1;sketch=1;fontColor=#1D3557;" parent="qdA1u5Kqc7f9OA1IQgTR-71" vertex="1">
          <mxGeometry y="52" width="110" height="26" as="geometry" />
        </mxCell>
        <mxCell id="qdA1u5Kqc7f9OA1IQgTR-74" value="操作日志记录" style="text;strokeColor=none;fillColor=none;align=left;verticalAlign=top;spacingLeft=4;spacingRight=4;overflow=hidden;rotatable=0;points=[[0,0.5],[1,0.5]];portConstraint=eastwest;rounded=1;sketch=1;fontColor=#1D3557;" parent="qdA1u5Kqc7f9OA1IQgTR-71" vertex="1">
          <mxGeometry y="78" width="110" height="26" as="geometry" />
        </mxCell>
        <mxCell id="qdA1u5Kqc7f9OA1IQgTR-75" value="主机启用" style="shape=process;whiteSpace=wrap;html=1;backgroundOutline=1;rounded=1;sketch=1;fontColor=#1D3557;strokeColor=#457B9D;fillColor=none;" parent="1" vertex="1">
          <mxGeometry x="320" y="1250" width="120" height="60" as="geometry" />
        </mxCell>
        <mxCell id="qdA1u5Kqc7f9OA1IQgTR-76" value="主机禁用" style="shape=process;whiteSpace=wrap;html=1;backgroundOutline=1;rounded=1;sketch=1;fontColor=#1D3557;strokeColor=#457B9D;fillColor=none;" parent="1" vertex="1">
          <mxGeometry x="524" y="1030" width="120" height="60" as="geometry" />
        </mxCell>
        <mxCell id="qdA1u5Kqc7f9OA1IQgTR-77" value="主机维修" style="shape=process;whiteSpace=wrap;html=1;backgroundOutline=1;rounded=1;sketch=1;fontColor=#1D3557;strokeColor=#457B9D;fillColor=none;" parent="1" vertex="1">
          <mxGeometry x="740" y="1260" width="120" height="60" as="geometry" />
        </mxCell>
      </root>
    </mxGraphModel>
  </diagram>
  <diagram id="RUytkkJGaRXE75nY7Jz4" name="Page-2">
    <mxGraphModel dx="2657" dy="1004" grid="1" gridSize="10" guides="1" tooltips="1" connect="1" arrows="1" fold="1" page="1" pageScale="1" pageWidth="827" pageHeight="1169" math="0" shadow="0">
      <root>
        <mxCell id="JDryHFNaBSUY6stBCJ_X-0" />
        <mxCell id="JDryHFNaBSUY6stBCJ_X-1" parent="JDryHFNaBSUY6stBCJ_X-0" />
        <mxCell id="JDryHFNaBSUY6stBCJ_X-110" value="" style="rounded=1;whiteSpace=wrap;html=1;align=left;" vertex="1" parent="JDryHFNaBSUY6stBCJ_X-1">
          <mxGeometry x="349" y="1000" width="1040" height="810" as="geometry" />
        </mxCell>
        <mxCell id="JDryHFNaBSUY6stBCJ_X-8" style="edgeStyle=orthogonalEdgeStyle;rounded=0;orthogonalLoop=1;jettySize=auto;html=1;" edge="1" parent="JDryHFNaBSUY6stBCJ_X-1" source="JDryHFNaBSUY6stBCJ_X-2">
          <mxGeometry relative="1" as="geometry">
            <mxPoint x="140" y="920" as="targetPoint" />
          </mxGeometry>
        </mxCell>
        <mxCell id="JDryHFNaBSUY6stBCJ_X-2" value="Kafka" style="rounded=0;whiteSpace=wrap;html=1;" vertex="1" parent="JDryHFNaBSUY6stBCJ_X-1">
          <mxGeometry x="80" y="290" width="120" height="60" as="geometry" />
        </mxCell>
        <mxCell id="JDryHFNaBSUY6stBCJ_X-9" style="edgeStyle=orthogonalEdgeStyle;rounded=0;orthogonalLoop=1;jettySize=auto;html=1;startArrow=none;" edge="1" parent="JDryHFNaBSUY6stBCJ_X-1" source="JDryHFNaBSUY6stBCJ_X-43">
          <mxGeometry relative="1" as="geometry">
            <mxPoint x="380" y="920" as="targetPoint" />
          </mxGeometry>
        </mxCell>
        <mxCell id="JDryHFNaBSUY6stBCJ_X-3" value="host-abnormal" style="rounded=0;whiteSpace=wrap;html=1;" vertex="1" parent="JDryHFNaBSUY6stBCJ_X-1">
          <mxGeometry x="320" y="290" width="120" height="60" as="geometry" />
        </mxCell>
        <mxCell id="JDryHFNaBSUY6stBCJ_X-11" style="edgeStyle=orthogonalEdgeStyle;rounded=0;orthogonalLoop=1;jettySize=auto;html=1;" edge="1" parent="JDryHFNaBSUY6stBCJ_X-1" source="JDryHFNaBSUY6stBCJ_X-4">
          <mxGeometry relative="1" as="geometry">
            <mxPoint x="811" y="920" as="targetPoint" />
          </mxGeometry>
        </mxCell>
        <mxCell id="JDryHFNaBSUY6stBCJ_X-4" value="host-monitor" style="rounded=0;whiteSpace=wrap;html=1;" vertex="1" parent="JDryHFNaBSUY6stBCJ_X-1">
          <mxGeometry x="751" y="290" width="120" height="60" as="geometry" />
        </mxCell>
        <mxCell id="JDryHFNaBSUY6stBCJ_X-46" style="edgeStyle=orthogonalEdgeStyle;rounded=0;orthogonalLoop=1;jettySize=auto;html=1;" edge="1" parent="JDryHFNaBSUY6stBCJ_X-1" source="JDryHFNaBSUY6stBCJ_X-5">
          <mxGeometry relative="1" as="geometry">
            <mxPoint x="1068" y="920" as="targetPoint" />
          </mxGeometry>
        </mxCell>
        <mxCell id="JDryHFNaBSUY6stBCJ_X-5" value="mysql" style="rounded=0;whiteSpace=wrap;html=1;" vertex="1" parent="JDryHFNaBSUY6stBCJ_X-1">
          <mxGeometry x="1008" y="290" width="120" height="60" as="geometry" />
        </mxCell>
        <mxCell id="JDryHFNaBSUY6stBCJ_X-14" style="edgeStyle=orthogonalEdgeStyle;rounded=0;orthogonalLoop=1;jettySize=auto;html=1;" edge="1" parent="JDryHFNaBSUY6stBCJ_X-1" source="JDryHFNaBSUY6stBCJ_X-13">
          <mxGeometry relative="1" as="geometry">
            <mxPoint x="320" y="410" as="targetPoint" />
          </mxGeometry>
        </mxCell>
        <mxCell id="JDryHFNaBSUY6stBCJ_X-34" style="edgeStyle=orthogonalEdgeStyle;rounded=0;orthogonalLoop=1;jettySize=auto;html=1;" edge="1" parent="JDryHFNaBSUY6stBCJ_X-1" source="JDryHFNaBSUY6stBCJ_X-33">
          <mxGeometry relative="1" as="geometry">
            <mxPoint x="550" y="415" as="targetPoint" />
          </mxGeometry>
        </mxCell>
        <mxCell id="JDryHFNaBSUY6stBCJ_X-81" style="edgeStyle=orthogonalEdgeStyle;rounded=0;orthogonalLoop=1;jettySize=auto;html=1;" edge="1" parent="JDryHFNaBSUY6stBCJ_X-1" source="JDryHFNaBSUY6stBCJ_X-35">
          <mxGeometry relative="1" as="geometry">
            <mxPoint x="380" y="620" as="targetPoint" />
            <Array as="points">
              <mxPoint x="821" y="620" />
              <mxPoint x="390" y="620" />
            </Array>
          </mxGeometry>
        </mxCell>
        <mxCell id="JDryHFNaBSUY6stBCJ_X-35" value="&lt;span style=&quot;font-size: 11px ; background-color: rgb(255 , 255 , 255)&quot;&gt;拉取硬件信息，申请事件&lt;/span&gt;&lt;br style=&quot;font-size: 11px&quot;&gt;&lt;span style=&quot;font-size: 11px ; background-color: rgb(255 , 255 , 255)&quot;&gt;（apply_event）&lt;/span&gt;" style="text;html=1;strokeColor=none;fillColor=none;align=center;verticalAlign=middle;whiteSpace=wrap;rounded=0;" vertex="1" parent="JDryHFNaBSUY6stBCJ_X-1">
          <mxGeometry x="751" y="540" width="140" height="30" as="geometry" />
        </mxCell>
        <mxCell id="JDryHFNaBSUY6stBCJ_X-40" style="edgeStyle=orthogonalEdgeStyle;rounded=0;orthogonalLoop=1;jettySize=auto;html=1;entryX=0;entryY=0.5;entryDx=0;entryDy=0;" edge="1" parent="JDryHFNaBSUY6stBCJ_X-1" source="JDryHFNaBSUY6stBCJ_X-37" target="JDryHFNaBSUY6stBCJ_X-39">
          <mxGeometry relative="1" as="geometry">
            <mxPoint x="820" y="675" as="targetPoint" />
            <Array as="points">
              <mxPoint x="750" y="675" />
              <mxPoint x="750" y="675" />
            </Array>
          </mxGeometry>
        </mxCell>
        <mxCell id="JDryHFNaBSUY6stBCJ_X-41" value="&lt;span style=&quot;color: rgb(0, 0, 0); font-family: helvetica; font-size: 11px; font-style: normal; font-weight: 400; letter-spacing: normal; text-align: center; text-indent: 0px; text-transform: none; word-spacing: 0px; background-color: rgb(255, 255, 255); display: inline; float: none;&quot;&gt;存储分析结果&lt;/span&gt;" style="text;whiteSpace=wrap;html=1;" vertex="1" parent="JDryHFNaBSUY6stBCJ_X-1">
          <mxGeometry x="1021" y="770" width="79" height="30" as="geometry" />
        </mxCell>
        <mxCell id="JDryHFNaBSUY6stBCJ_X-45" style="edgeStyle=orthogonalEdgeStyle;rounded=0;orthogonalLoop=1;jettySize=auto;html=1;entryX=0;entryY=0.5;entryDx=0;entryDy=0;" edge="1" parent="JDryHFNaBSUY6stBCJ_X-1" source="JDryHFNaBSUY6stBCJ_X-43" target="JDryHFNaBSUY6stBCJ_X-41">
          <mxGeometry relative="1" as="geometry">
            <Array as="points">
              <mxPoint x="650" y="785" />
              <mxPoint x="650" y="785" />
            </Array>
          </mxGeometry>
        </mxCell>
        <mxCell id="JDryHFNaBSUY6stBCJ_X-43" value="&lt;span style=&quot;font-size: 11px ; text-align: center ; background-color: rgb(255 , 255 , 255)&quot;&gt;异步分析&lt;br&gt;主机异常&lt;/span&gt;" style="text;whiteSpace=wrap;html=1;" vertex="1" parent="JDryHFNaBSUY6stBCJ_X-1">
          <mxGeometry x="352.5" y="770" width="55" height="40" as="geometry" />
        </mxCell>
        <mxCell id="JDryHFNaBSUY6stBCJ_X-44" value="" style="edgeStyle=orthogonalEdgeStyle;rounded=0;orthogonalLoop=1;jettySize=auto;html=1;endArrow=none;" edge="1" parent="JDryHFNaBSUY6stBCJ_X-1" source="JDryHFNaBSUY6stBCJ_X-3" target="JDryHFNaBSUY6stBCJ_X-43">
          <mxGeometry relative="1" as="geometry">
            <mxPoint x="380" y="1170" as="targetPoint" />
            <mxPoint x="380" y="350" as="sourcePoint" />
            <Array as="points">
              <mxPoint x="380" y="560" />
              <mxPoint x="380" y="560" />
            </Array>
          </mxGeometry>
        </mxCell>
        <mxCell id="JDryHFNaBSUY6stBCJ_X-37" value="&lt;span style=&quot;font-size: 11px ; background-color: rgb(255 , 255 , 255)&quot;&gt;申请记录异常分析&lt;/span&gt;" style="text;html=1;strokeColor=none;fillColor=none;align=center;verticalAlign=middle;whiteSpace=wrap;rounded=0;" vertex="1" parent="JDryHFNaBSUY6stBCJ_X-1">
          <mxGeometry x="350" y="660" width="60" height="30" as="geometry" />
        </mxCell>
        <mxCell id="JDryHFNaBSUY6stBCJ_X-39" value="&lt;span style=&quot;font-size: 11px ; background-color: rgb(255 , 255 , 255)&quot;&gt;存储分析结果&lt;/span&gt;" style="text;html=1;strokeColor=none;fillColor=none;align=center;verticalAlign=middle;whiteSpace=wrap;rounded=0;" vertex="1" parent="JDryHFNaBSUY6stBCJ_X-1">
          <mxGeometry x="1021" y="660" width="80" height="30" as="geometry" />
        </mxCell>
        <mxCell id="JDryHFNaBSUY6stBCJ_X-80" style="edgeStyle=orthogonalEdgeStyle;rounded=0;orthogonalLoop=1;jettySize=auto;html=1;entryX=0;entryY=0.5;entryDx=0;entryDy=0;" edge="1" parent="JDryHFNaBSUY6stBCJ_X-1" source="JDryHFNaBSUY6stBCJ_X-33" target="JDryHFNaBSUY6stBCJ_X-35">
          <mxGeometry relative="1" as="geometry">
            <Array as="points">
              <mxPoint x="380" y="555" />
            </Array>
          </mxGeometry>
        </mxCell>
        <mxCell id="JDryHFNaBSUY6stBCJ_X-33" value="&lt;span style=&quot;font-size: 11px ; background-color: rgb(255 , 255 , 255)&quot;&gt;接收，校验，&lt;/span&gt;&lt;br style=&quot;font-size: 11px&quot;&gt;&lt;span style=&quot;font-size: 11px ; background-color: rgb(255 , 255 , 255)&quot;&gt;处理已结束的订单&lt;/span&gt;" style="text;html=1;strokeColor=none;fillColor=none;align=center;verticalAlign=middle;whiteSpace=wrap;rounded=0;" vertex="1" parent="JDryHFNaBSUY6stBCJ_X-1">
          <mxGeometry x="330" y="400" width="100" height="30" as="geometry" />
        </mxCell>
        <mxCell id="JDryHFNaBSUY6stBCJ_X-13" value="computer-apply-record订单" style="text;html=1;align=center;verticalAlign=middle;resizable=0;points=[];autosize=1;strokeColor=none;fillColor=none;" vertex="1" parent="JDryHFNaBSUY6stBCJ_X-1">
          <mxGeometry x="60" y="400" width="160" height="20" as="geometry" />
        </mxCell>
        <mxCell id="JDryHFNaBSUY6stBCJ_X-73" style="edgeStyle=orthogonalEdgeStyle;rounded=0;orthogonalLoop=1;jettySize=auto;html=1;startArrow=none;" edge="1" parent="JDryHFNaBSUY6stBCJ_X-1" source="JDryHFNaBSUY6stBCJ_X-75">
          <mxGeometry relative="1" as="geometry">
            <mxPoint x="590" y="920" as="targetPoint" />
          </mxGeometry>
        </mxCell>
        <mxCell id="JDryHFNaBSUY6stBCJ_X-72" value="cpc-base" style="rounded=0;whiteSpace=wrap;html=1;" vertex="1" parent="JDryHFNaBSUY6stBCJ_X-1">
          <mxGeometry x="530" y="290" width="120" height="60" as="geometry" />
        </mxCell>
        <mxCell id="JDryHFNaBSUY6stBCJ_X-77" style="edgeStyle=orthogonalEdgeStyle;rounded=0;orthogonalLoop=1;jettySize=auto;html=1;" edge="1" parent="JDryHFNaBSUY6stBCJ_X-1" source="JDryHFNaBSUY6stBCJ_X-75">
          <mxGeometry relative="1" as="geometry">
            <mxPoint x="380" y="480" as="targetPoint" />
            <Array as="points">
              <mxPoint x="590" y="480" />
              <mxPoint x="390" y="480" />
            </Array>
          </mxGeometry>
        </mxCell>
        <mxCell id="JDryHFNaBSUY6stBCJ_X-75" value="拉取申请记录详情" style="text;html=1;strokeColor=none;fillColor=none;align=center;verticalAlign=middle;whiteSpace=wrap;rounded=0;" vertex="1" parent="JDryHFNaBSUY6stBCJ_X-1">
          <mxGeometry x="560" y="400" width="60" height="30" as="geometry" />
        </mxCell>
        <mxCell id="JDryHFNaBSUY6stBCJ_X-76" value="" style="edgeStyle=orthogonalEdgeStyle;rounded=0;orthogonalLoop=1;jettySize=auto;html=1;endArrow=none;" edge="1" parent="JDryHFNaBSUY6stBCJ_X-1" source="JDryHFNaBSUY6stBCJ_X-72" target="JDryHFNaBSUY6stBCJ_X-75">
          <mxGeometry relative="1" as="geometry">
            <mxPoint x="590" y="920" as="targetPoint" />
            <mxPoint x="590" y="350" as="sourcePoint" />
          </mxGeometry>
        </mxCell>
        <mxCell id="JDryHFNaBSUY6stBCJ_X-82" style="edgeStyle=orthogonalEdgeStyle;rounded=0;orthogonalLoop=1;jettySize=auto;html=1;" edge="1" parent="JDryHFNaBSUY6stBCJ_X-1" source="JDryHFNaBSUY6stBCJ_X-83">
          <mxGeometry relative="1" as="geometry">
            <mxPoint x="259" y="1720" as="targetPoint" />
          </mxGeometry>
        </mxCell>
        <mxCell id="JDryHFNaBSUY6stBCJ_X-83" value="中心端" style="rounded=0;whiteSpace=wrap;html=1;" vertex="1" parent="JDryHFNaBSUY6stBCJ_X-1">
          <mxGeometry x="199" y="1090" width="120" height="60" as="geometry" />
        </mxCell>
        <mxCell id="JDryHFNaBSUY6stBCJ_X-85" value="host-abnormal" style="rounded=0;whiteSpace=wrap;html=1;" vertex="1" parent="JDryHFNaBSUY6stBCJ_X-1">
          <mxGeometry x="439" y="1090" width="120" height="60" as="geometry" />
        </mxCell>
        <mxCell id="JDryHFNaBSUY6stBCJ_X-86" style="edgeStyle=orthogonalEdgeStyle;rounded=0;orthogonalLoop=1;jettySize=auto;html=1;" edge="1" parent="JDryHFNaBSUY6stBCJ_X-1" source="JDryHFNaBSUY6stBCJ_X-87">
          <mxGeometry relative="1" as="geometry">
            <mxPoint x="930" y="1720" as="targetPoint" />
          </mxGeometry>
        </mxCell>
        <mxCell id="JDryHFNaBSUY6stBCJ_X-87" value="host-monitor" style="rounded=0;whiteSpace=wrap;html=1;" vertex="1" parent="JDryHFNaBSUY6stBCJ_X-1">
          <mxGeometry x="870" y="1090" width="120" height="60" as="geometry" />
        </mxCell>
        <mxCell id="JDryHFNaBSUY6stBCJ_X-88" style="edgeStyle=orthogonalEdgeStyle;rounded=0;orthogonalLoop=1;jettySize=auto;html=1;" edge="1" parent="JDryHFNaBSUY6stBCJ_X-1" source="JDryHFNaBSUY6stBCJ_X-89">
          <mxGeometry relative="1" as="geometry">
            <mxPoint x="1187" y="1720" as="targetPoint" />
          </mxGeometry>
        </mxCell>
        <mxCell id="JDryHFNaBSUY6stBCJ_X-89" value="mysql" style="rounded=0;whiteSpace=wrap;html=1;" vertex="1" parent="JDryHFNaBSUY6stBCJ_X-1">
          <mxGeometry x="1127" y="1090" width="120" height="60" as="geometry" />
        </mxCell>
        <mxCell id="JDryHFNaBSUY6stBCJ_X-90" style="edgeStyle=orthogonalEdgeStyle;rounded=0;orthogonalLoop=1;jettySize=auto;html=1;" edge="1" parent="JDryHFNaBSUY6stBCJ_X-1" source="JDryHFNaBSUY6stBCJ_X-103">
          <mxGeometry relative="1" as="geometry">
            <mxPoint x="439" y="1210" as="targetPoint" />
          </mxGeometry>
        </mxCell>
        <mxCell id="JDryHFNaBSUY6stBCJ_X-91" style="edgeStyle=orthogonalEdgeStyle;rounded=0;orthogonalLoop=1;jettySize=auto;html=1;" edge="1" parent="JDryHFNaBSUY6stBCJ_X-1" source="JDryHFNaBSUY6stBCJ_X-102">
          <mxGeometry relative="1" as="geometry">
            <mxPoint x="669" y="1215" as="targetPoint" />
          </mxGeometry>
        </mxCell>
        <mxCell id="JDryHFNaBSUY6stBCJ_X-92" style="edgeStyle=orthogonalEdgeStyle;rounded=0;orthogonalLoop=1;jettySize=auto;html=1;" edge="1" parent="JDryHFNaBSUY6stBCJ_X-1" source="JDryHFNaBSUY6stBCJ_X-93">
          <mxGeometry relative="1" as="geometry">
            <mxPoint x="499" y="1420" as="targetPoint" />
            <Array as="points">
              <mxPoint x="940" y="1420" />
              <mxPoint x="509" y="1420" />
            </Array>
          </mxGeometry>
        </mxCell>
        <mxCell id="JDryHFNaBSUY6stBCJ_X-93" value="&lt;span style=&quot;font-size: 11px ; background-color: rgb(255 , 255 , 255)&quot;&gt;拉取硬件信息，申请事件&lt;/span&gt;&lt;br style=&quot;font-size: 11px&quot;&gt;&lt;span style=&quot;font-size: 11px ; background-color: rgb(255 , 255 , 255)&quot;&gt;（apply_event）&lt;/span&gt;" style="text;html=1;strokeColor=none;fillColor=none;align=center;verticalAlign=middle;whiteSpace=wrap;rounded=0;" vertex="1" parent="JDryHFNaBSUY6stBCJ_X-1">
          <mxGeometry x="870" y="1340" width="140" height="30" as="geometry" />
        </mxCell>
        <mxCell id="JDryHFNaBSUY6stBCJ_X-94" style="edgeStyle=orthogonalEdgeStyle;rounded=0;orthogonalLoop=1;jettySize=auto;html=1;entryX=0;entryY=0.5;entryDx=0;entryDy=0;" edge="1" parent="JDryHFNaBSUY6stBCJ_X-1" source="JDryHFNaBSUY6stBCJ_X-99" target="JDryHFNaBSUY6stBCJ_X-100">
          <mxGeometry relative="1" as="geometry">
            <mxPoint x="939" y="1475" as="targetPoint" />
            <Array as="points">
              <mxPoint x="869" y="1475" />
              <mxPoint x="869" y="1475" />
            </Array>
          </mxGeometry>
        </mxCell>
        <mxCell id="JDryHFNaBSUY6stBCJ_X-98" value="" style="edgeStyle=orthogonalEdgeStyle;rounded=0;orthogonalLoop=1;jettySize=auto;html=1;endArrow=none;" edge="1" parent="JDryHFNaBSUY6stBCJ_X-1" source="JDryHFNaBSUY6stBCJ_X-85">
          <mxGeometry relative="1" as="geometry">
            <mxPoint x="499" y="1570" as="targetPoint" />
            <mxPoint x="499" y="1150" as="sourcePoint" />
            <Array as="points">
              <mxPoint x="499" y="1360" />
              <mxPoint x="499" y="1360" />
            </Array>
          </mxGeometry>
        </mxCell>
        <mxCell id="JDryHFNaBSUY6stBCJ_X-99" value="&lt;span style=&quot;font-size: 11px ; background-color: rgb(255 , 255 , 255)&quot;&gt;申请记录异常分析&lt;/span&gt;" style="text;html=1;strokeColor=none;fillColor=none;align=center;verticalAlign=middle;whiteSpace=wrap;rounded=0;" vertex="1" parent="JDryHFNaBSUY6stBCJ_X-1">
          <mxGeometry x="469" y="1460" width="60" height="30" as="geometry" />
        </mxCell>
        <mxCell id="JDryHFNaBSUY6stBCJ_X-112" style="edgeStyle=orthogonalEdgeStyle;rounded=0;orthogonalLoop=1;jettySize=auto;html=1;fontSize=24;exitX=0.5;exitY=1;exitDx=0;exitDy=0;" edge="1" parent="JDryHFNaBSUY6stBCJ_X-1" source="JDryHFNaBSUY6stBCJ_X-100">
          <mxGeometry relative="1" as="geometry">
            <mxPoint x="-150" y="1640" as="targetPoint" />
            <Array as="points">
              <mxPoint x="1180" y="1640" />
            </Array>
          </mxGeometry>
        </mxCell>
        <mxCell id="JDryHFNaBSUY6stBCJ_X-114" value="同步" style="edgeLabel;html=1;align=center;verticalAlign=middle;resizable=0;points=[];fontSize=11;" vertex="1" connectable="0" parent="JDryHFNaBSUY6stBCJ_X-112">
          <mxGeometry x="0.9141" y="-3" relative="1" as="geometry">
            <mxPoint as="offset" />
          </mxGeometry>
        </mxCell>
        <mxCell id="JDryHFNaBSUY6stBCJ_X-100" value="&lt;span style=&quot;font-size: 11px ; background-color: rgb(255 , 255 , 255)&quot;&gt;存储分析结果&lt;/span&gt;" style="text;html=1;strokeColor=none;fillColor=none;align=center;verticalAlign=middle;whiteSpace=wrap;rounded=0;" vertex="1" parent="JDryHFNaBSUY6stBCJ_X-1">
          <mxGeometry x="1140" y="1460" width="80" height="30" as="geometry" />
        </mxCell>
        <mxCell id="JDryHFNaBSUY6stBCJ_X-101" style="edgeStyle=orthogonalEdgeStyle;rounded=0;orthogonalLoop=1;jettySize=auto;html=1;entryX=0;entryY=0.5;entryDx=0;entryDy=0;" edge="1" parent="JDryHFNaBSUY6stBCJ_X-1" source="JDryHFNaBSUY6stBCJ_X-102" target="JDryHFNaBSUY6stBCJ_X-93">
          <mxGeometry relative="1" as="geometry">
            <Array as="points">
              <mxPoint x="499" y="1355" />
            </Array>
          </mxGeometry>
        </mxCell>
        <mxCell id="JDryHFNaBSUY6stBCJ_X-102" value="&lt;span style=&quot;font-size: 11px ; background-color: rgb(255 , 255 , 255)&quot;&gt;接收，校验，&lt;/span&gt;&lt;br style=&quot;font-size: 11px&quot;&gt;&lt;span style=&quot;font-size: 11px ; background-color: rgb(255 , 255 , 255)&quot;&gt;处理已结束的订单&lt;/span&gt;" style="text;html=1;strokeColor=none;fillColor=none;align=center;verticalAlign=middle;whiteSpace=wrap;rounded=0;" vertex="1" parent="JDryHFNaBSUY6stBCJ_X-1">
          <mxGeometry x="449" y="1200" width="100" height="30" as="geometry" />
        </mxCell>
        <mxCell id="JDryHFNaBSUY6stBCJ_X-120" style="edgeStyle=orthogonalEdgeStyle;rounded=0;orthogonalLoop=1;jettySize=auto;html=1;fontSize=11;" edge="1" parent="JDryHFNaBSUY6stBCJ_X-1" source="JDryHFNaBSUY6stBCJ_X-103">
          <mxGeometry relative="1" as="geometry">
            <mxPoint x="50" y="1210" as="targetPoint" />
          </mxGeometry>
        </mxCell>
        <mxCell id="JDryHFNaBSUY6stBCJ_X-121" value="kafka" style="edgeLabel;html=1;align=center;verticalAlign=middle;resizable=0;points=[];fontSize=11;" vertex="1" connectable="0" parent="JDryHFNaBSUY6stBCJ_X-120">
          <mxGeometry x="0.1451" y="-4" relative="1" as="geometry">
            <mxPoint as="offset" />
          </mxGeometry>
        </mxCell>
        <mxCell id="JDryHFNaBSUY6stBCJ_X-103" value="申请单end" style="text;html=1;align=center;verticalAlign=middle;resizable=0;points=[];autosize=1;strokeColor=none;fillColor=none;" vertex="1" parent="JDryHFNaBSUY6stBCJ_X-1">
          <mxGeometry x="224" y="1200" width="70" height="20" as="geometry" />
        </mxCell>
        <mxCell id="JDryHFNaBSUY6stBCJ_X-104" style="edgeStyle=orthogonalEdgeStyle;rounded=0;orthogonalLoop=1;jettySize=auto;html=1;startArrow=none;" edge="1" parent="JDryHFNaBSUY6stBCJ_X-1" source="JDryHFNaBSUY6stBCJ_X-107">
          <mxGeometry relative="1" as="geometry">
            <mxPoint x="709" y="1720" as="targetPoint" />
          </mxGeometry>
        </mxCell>
        <mxCell id="JDryHFNaBSUY6stBCJ_X-105" value="cpc-base" style="rounded=0;whiteSpace=wrap;html=1;" vertex="1" parent="JDryHFNaBSUY6stBCJ_X-1">
          <mxGeometry x="649" y="1090" width="120" height="60" as="geometry" />
        </mxCell>
        <mxCell id="JDryHFNaBSUY6stBCJ_X-106" style="edgeStyle=orthogonalEdgeStyle;rounded=0;orthogonalLoop=1;jettySize=auto;html=1;" edge="1" parent="JDryHFNaBSUY6stBCJ_X-1" source="JDryHFNaBSUY6stBCJ_X-107">
          <mxGeometry relative="1" as="geometry">
            <mxPoint x="499" y="1280" as="targetPoint" />
            <Array as="points">
              <mxPoint x="709" y="1280" />
              <mxPoint x="509" y="1280" />
            </Array>
          </mxGeometry>
        </mxCell>
        <mxCell id="JDryHFNaBSUY6stBCJ_X-107" value="拉取申请记录详情" style="text;html=1;strokeColor=none;fillColor=none;align=center;verticalAlign=middle;whiteSpace=wrap;rounded=0;" vertex="1" parent="JDryHFNaBSUY6stBCJ_X-1">
          <mxGeometry x="679" y="1200" width="60" height="30" as="geometry" />
        </mxCell>
        <mxCell id="JDryHFNaBSUY6stBCJ_X-108" value="" style="edgeStyle=orthogonalEdgeStyle;rounded=0;orthogonalLoop=1;jettySize=auto;html=1;endArrow=none;" edge="1" parent="JDryHFNaBSUY6stBCJ_X-1" source="JDryHFNaBSUY6stBCJ_X-105" target="JDryHFNaBSUY6stBCJ_X-107">
          <mxGeometry relative="1" as="geometry">
            <mxPoint x="709" y="1720" as="targetPoint" />
            <mxPoint x="709" y="1150" as="sourcePoint" />
          </mxGeometry>
        </mxCell>
        <mxCell id="JDryHFNaBSUY6stBCJ_X-111" value="边缘" style="text;html=1;strokeColor=none;fillColor=none;align=center;verticalAlign=middle;whiteSpace=wrap;rounded=0;fontSize=24;fontStyle=1" vertex="1" parent="JDryHFNaBSUY6stBCJ_X-1">
          <mxGeometry x="819" y="1000" width="60" height="30" as="geometry" />
        </mxCell>
        <mxCell id="JDryHFNaBSUY6stBCJ_X-117" style="edgeStyle=orthogonalEdgeStyle;rounded=0;orthogonalLoop=1;jettySize=auto;html=1;fontSize=11;startArrow=none;" edge="1" parent="JDryHFNaBSUY6stBCJ_X-1" source="JDryHFNaBSUY6stBCJ_X-119">
          <mxGeometry relative="1" as="geometry">
            <mxPoint x="40" y="1730" as="targetPoint" />
          </mxGeometry>
        </mxCell>
        <mxCell id="JDryHFNaBSUY6stBCJ_X-115" value="host-abnormal" style="rounded=0;whiteSpace=wrap;html=1;" vertex="1" parent="JDryHFNaBSUY6stBCJ_X-1">
          <mxGeometry x="-20" y="1090" width="120" height="60" as="geometry" />
        </mxCell>
        <mxCell id="JDryHFNaBSUY6stBCJ_X-126" style="edgeStyle=orthogonalEdgeStyle;rounded=0;orthogonalLoop=1;jettySize=auto;html=1;fontSize=11;" edge="1" parent="JDryHFNaBSUY6stBCJ_X-1" source="JDryHFNaBSUY6stBCJ_X-119">
          <mxGeometry relative="1" as="geometry">
            <mxPoint x="-140" y="1240" as="targetPoint" />
          </mxGeometry>
        </mxCell>
        <mxCell id="JDryHFNaBSUY6stBCJ_X-119" value="&lt;span style=&quot;font-size: 11px ; text-align: center ; background-color: rgb(255 , 255 , 255)&quot;&gt;异步分析&lt;br&gt;主机异常&lt;/span&gt;" style="text;whiteSpace=wrap;html=1;" vertex="1" parent="JDryHFNaBSUY6stBCJ_X-1">
          <mxGeometry x="12.5" y="1220" width="55" height="40" as="geometry" />
        </mxCell>
        <mxCell id="JDryHFNaBSUY6stBCJ_X-122" value="" style="edgeStyle=orthogonalEdgeStyle;rounded=0;orthogonalLoop=1;jettySize=auto;html=1;fontSize=11;endArrow=none;" edge="1" parent="JDryHFNaBSUY6stBCJ_X-1" source="JDryHFNaBSUY6stBCJ_X-115" target="JDryHFNaBSUY6stBCJ_X-119">
          <mxGeometry relative="1" as="geometry">
            <mxPoint x="40" y="1730" as="targetPoint" />
            <mxPoint x="40" y="1150" as="sourcePoint" />
          </mxGeometry>
        </mxCell>
        <mxCell id="JDryHFNaBSUY6stBCJ_X-125" style="edgeStyle=orthogonalEdgeStyle;rounded=0;orthogonalLoop=1;jettySize=auto;html=1;fontSize=11;startArrow=none;" edge="1" parent="JDryHFNaBSUY6stBCJ_X-1" source="JDryHFNaBSUY6stBCJ_X-128">
          <mxGeometry relative="1" as="geometry">
            <mxPoint x="-160" y="1730" as="targetPoint" />
          </mxGeometry>
        </mxCell>
        <mxCell id="JDryHFNaBSUY6stBCJ_X-124" value="mysql" style="rounded=0;whiteSpace=wrap;html=1;" vertex="1" parent="JDryHFNaBSUY6stBCJ_X-1">
          <mxGeometry x="-220" y="1090" width="120" height="60" as="geometry" />
        </mxCell>
        <mxCell id="JDryHFNaBSUY6stBCJ_X-130" style="edgeStyle=orthogonalEdgeStyle;rounded=0;orthogonalLoop=1;jettySize=auto;html=1;fontSize=11;" edge="1" parent="JDryHFNaBSUY6stBCJ_X-1" source="JDryHFNaBSUY6stBCJ_X-128">
          <mxGeometry relative="1" as="geometry">
            <mxPoint x="40" y="1290" as="targetPoint" />
            <Array as="points">
              <mxPoint x="-160" y="1290" />
              <mxPoint x="30" y="1290" />
            </Array>
          </mxGeometry>
        </mxCell>
        <mxCell id="JDryHFNaBSUY6stBCJ_X-128" value="&lt;span style=&quot;font-size: 11px ; background-color: rgb(255 , 255 , 255)&quot;&gt;拉取异常申请记录&lt;/span&gt;" style="text;html=1;strokeColor=none;fillColor=none;align=center;verticalAlign=middle;whiteSpace=wrap;rounded=0;" vertex="1" parent="JDryHFNaBSUY6stBCJ_X-1">
          <mxGeometry x="-190" y="1230" width="60" height="30" as="geometry" />
        </mxCell>
        <mxCell id="JDryHFNaBSUY6stBCJ_X-129" value="" style="edgeStyle=orthogonalEdgeStyle;rounded=0;orthogonalLoop=1;jettySize=auto;html=1;fontSize=11;endArrow=none;" edge="1" parent="JDryHFNaBSUY6stBCJ_X-1" source="JDryHFNaBSUY6stBCJ_X-124" target="JDryHFNaBSUY6stBCJ_X-128">
          <mxGeometry relative="1" as="geometry">
            <mxPoint x="-160" y="1730" as="targetPoint" />
            <mxPoint x="-160" y="1150" as="sourcePoint" />
          </mxGeometry>
        </mxCell>
      </root>
    </mxGraphModel>
  </diagram>
</mxfile>
